<?xml version="1.0" encoding="utf-8"?>
<!-- Generator: Adobe Illustrator 16.0.0, SVG Export Plug-In . SVG Version: 6.00 Build 0)  -->
<!DOCTYPE svg PUBLIC "-//W3C//DTD SVG 1.1//EN" "http://www.w3.org/Graphics/SVG/1.1/DTD/svg11.dtd">
<svg version="1.1" id="Layer_1" xmlns="http://www.w3.org/2000/svg" xmlns:xlink="http://www.w3.org/1999/xlink" x="0px" y="0px"
	 width="117.25px" height="117.25px" viewBox="0 0 117.25 117.25" enable-background="new 0 0 117.25 117.25" xml:space="preserve">
<path fill="#252461" d="M117.333,58.667c0,32.4-26.268,58.666-58.665,58.666C26.267,117.333,0,91.067,0,58.667
	C0,26.266,26.267,0,58.668,0C91.065,0,117.333,26.266,117.333,58.667z"/>
<path fill="none" d="M47.783,53.024c0.001,0,0.002,0,0.002,0l0.001-10.775C47.769,45.646,47.783,49.044,47.783,53.024z"/>
<g>
	<path fill="#FFFFFF" d="M81.935,81.523c0,0-28.229,0.058-29.377,0.064c-2.643,0.021-4.665-0.799-4.791-3.638
		c-0.199-4.406,0.002-32.304,0.02-35.701c0.025-4.815,1.063-5.879,5.782-5.89c1.085-0.002,2.17,0,3.255,0
		c0.007,0,21.717,0.002,21.717,0.002c1.334,0,1.993-1.236,2.416-2.418l1.819-5.576c0.191-0.62,0.873-2.703-0.827-2.76
		c0,0-25.193,0.013-25.238,0.015c-3.229,0.018-6.454,0.058-9.681,0.151c-6.774,0.196-11.427,4.986-11.497,11.607
		c-0.155,14.357-0.16,28.719-0.004,43.078c0.077,7.123,5.151,11.873,12.287,11.915c2.852,0.016,30.666,0.035,30.666,0.035
		c1.353,0,2.021-1.252,2.452-2.449l1.842-5.643C82.963,83.688,83.657,81.578,81.935,81.523z"/>
	<linearGradient id="SVGID_1_" gradientUnits="userSpaceOnUse" x1="50.6289" y1="75.2988" x2="63.0716" y2="41.1129">
		<stop  offset="0.2957" style="stop-color:#F15A29"/>
		<stop  offset="0.444" style="stop-color:#F47B20"/>
		<stop  offset="0.7692" style="stop-color:#FCCF09"/>
		<stop  offset="0.8925" style="stop-color:#FFF100"/>
	</linearGradient>
	<path fill="url(#SVGID_1_)" d="M83.567,48.572l-4.503,1.471l-7.982,2.479l-31.424,9.756h-0.002l-10.01,3.108
		c-0.729,0.225-1.151,0.797-1.007,1.371c0.14,0.569,0.805,0.979,1.587,0.977l43.806-0.076c4.512,0.076,4.975-0.618,5.45-2.284
		l2.67-10.564L83.567,48.572z"/>
</g>
</svg>
